<?xml version="1.0" standalone="no"?>
<!DOCTYPE svg PUBLIC "-//W3C//DTD SVG 20010904//EN"
 "http://www.w3.org/TR/2001/REC-SVG-20010904/DTD/svg10.dtd">
<svg version="1.0" xmlns="http://www.w3.org/2000/svg"
 width="1600.000000pt" height="704.000000pt" viewBox="0 0 1600.000000 704.000000"
 preserveAspectRatio="xMidYMid meet">

<g transform="translate(0.000000,704.000000) scale(0.100000,-0.100000)"
fill="#000000" stroke="none">
<path d="M0 3520 l0 -3520 8000 0 8000 0 0 3520 0 3520 -8000 0 -8000 0 0
-3520z m4225 1351 c338 -83 612 -332 721 -658 100 -298 58 -598 -124 -883
-110 -172 -339 -339 -557 -407 -85 -26 -101 -27 -275 -27 -172 0 -191 2 -273
27 -81 25 -193 77 -278 129 l-35 21 -50 -52 c-64 -69 -67 -75 -69 -142 -1 -73
4 -66 -273 -382 -288 -328 -294 -335 -349 -359 -127 -56 -278 45 -277 187 0
28 7 64 16 80 15 27 97 124 462 546 106 123 141 149 197 149 31 0 44 9 97 64
34 35 62 68 62 73 0 4 -21 35 -46 68 -59 77 -138 239 -163 335 -80 299 -21
594 168 845 153 203 401 356 641 395 41 6 82 13 90 15 37 10 243 -7 315 -24z
m2643 -398 c129 -80 128 -277 -2 -357 -87 -54 -200 -47 -273 17 -94 82 -97
236 -7 319 70 64 197 74 282 21z m3202 -938 l0 -905 -175 0 -175 0 0 76 0 77
-42 -39 c-103 -94 -196 -127 -363 -127 -105 -1 -130 3 -198 26 -208 72 -357
237 -414 457 -22 87 -22 273 0 360 61 237 233 412 457 464 75 18 203 21 281 6
65 -12 169 -60 212 -96 l32 -27 3 317 2 316 190 0 190 0 0 -905z m710 325 c0
-376 4 -576 11 -612 26 -122 111 -228 217 -269 46 -19 78 -23 162 -23 99 -1
109 1 172 32 81 40 148 110 180 190 23 57 23 61 28 632 l5 575 203 3 202 2 0
-518 c0 -290 -4 -555 -10 -602 -40 -332 -224 -552 -535 -642 -70 -20 -101 -23
-255 -23 -204 1 -253 11 -400 82 -180 87 -301 240 -362 459 -22 77 -23 94 -26
677 l-3 597 206 0 205 0 0 -560z m-4617 525 c81 -15 223 -58 239 -74 6 -6 -72
-294 -83 -305 -2 -3 -38 5 -79 18 -105 34 -223 49 -343 44 -88 -3 -111 -7
-160 -32 -105 -51 -147 -139 -147 -308 l0 -98 330 -2 331 -3 5 -119 c3 -66 3
-139 -1 -163 l-6 -43 -330 0 -329 0 0 -335 0 -335 -195 0 -195 0 0 613 c0 688
0 689 71 836 87 179 253 288 490 321 87 12 294 4 402 -15z m7097 -19 c36 -9
106 -36 155 -60 149 -73 246 -183 302 -343 25 -69 28 -92 28 -208 0 -111 -3
-140 -24 -200 -70 -206 -205 -330 -436 -401 -87 -27 -99 -28 -367 -32 l-278
-4 0 -244 0 -244 -200 0 -200 0 0 881 0 880 478 -4 c410 -3 486 -6 542 -21z
m-5132 -441 c183 -43 307 -174 348 -364 10 -51 14 -167 14 -498 l0 -433 -185
0 -185 0 0 373 c0 410 -6 460 -59 527 -57 72 -175 101 -283 68 -56 -16 -121
-78 -149 -140 -24 -53 -24 -56 -27 -440 l-3 -388 -190 0 -189 0 2 648 3 647
120 1 c66 1 144 -1 173 -3 l52 -5 0 -64 c0 -35 3 -64 6 -64 3 0 25 15 48 34
49 41 149 92 203 105 61 14 232 12 301 -4z m-1198 -650 l0 -645 -190 0 -190 0
0 645 0 645 190 0 190 0 0 -645z"/>
<path d="M3874 4631 c-219 -35 -431 -183 -540 -377 -62 -111 -86 -196 -91
-324 -6 -141 10 -227 65 -342 70 -149 165 -252 312 -338 261 -154 605 -126
837 69 247 208 335 504 238 809 -35 110 -88 195 -180 288 -139 141 -299 212
-490 219 -55 2 -123 0 -151 -4z m165 -167 c46 -58 14 -98 -86 -109 -132 -14
-260 -83 -337 -182 -54 -68 -81 -134 -100 -246 -15 -85 -30 -107 -73 -107 -86
0 -83 143 9 329 94 194 308 333 520 340 39 1 50 -3 67 -25z"/>
<path d="M9291 3615 c-98 -28 -173 -102 -206 -203 -13 -39 -16 -76 -13 -151 3
-89 7 -106 38 -167 60 -116 165 -173 297 -161 116 11 195 65 251 170 25 49 27
60 27 177 0 111 -3 130 -23 172 -67 135 -224 204 -371 163z"/>
<path d="M12640 3755 l0 -296 233 3 c213 3 237 5 288 26 65 26 120 75 151 135
18 33 22 59 23 127 0 74 -4 93 -29 143 -18 38 -43 69 -70 89 -83 60 -91 61
-353 66 l-243 4 0 -297z"/>
</g>
</svg>
